<svg xmlns="http://www.w3.org/2000/svg" xmlns:xlink="http://www.w3.org/1999/xlink" width="500" zoomAndPan="magnify" viewBox="0 0 375 374.999991" height="500" preserveAspectRatio="xMidYMid meet" version="1.0"><defs><g/><clipPath id="a537e75d14"><path d="M 143.046875 96.625 L 183 96.625 L 183 137 L 143.046875 137 Z M 143.046875 96.625 " clip-rule="nonzero"/></clipPath><clipPath id="1ff7722bbf"><path d="M 192 96.625 L 232 96.625 L 232 137 L 192 137 Z M 192 96.625 " clip-rule="nonzero"/></clipPath><clipPath id="40ed4164d3"><path d="M 143.046875 146 L 183 146 L 183 185.875 L 143.046875 185.875 Z M 143.046875 146 " clip-rule="nonzero"/></clipPath><clipPath id="508c10701d"><path d="M 192 146 L 232 146 L 232 185.875 L 192 185.875 Z M 192 146 " clip-rule="nonzero"/></clipPath></defs><rect x="-37.5" width="450" fill="#ffffff" y="-37.499999" height="449.999989" fill-opacity="1"/><rect x="-37.5" width="450" fill="#ffffff" y="-37.499999" height="449.999989" fill-opacity="1"/><g clip-path="url(#a537e75d14)"><path fill="#2b7faf" d="M 180.085938 96.625 L 145.515625 96.625 C 145.1875 96.625 144.871094 96.6875 144.570312 96.8125 C 144.265625 96.9375 144 97.117188 143.769531 97.347656 C 143.539062 97.582031 143.359375 97.847656 143.234375 98.148438 C 143.109375 98.453125 143.046875 98.769531 143.046875 99.09375 L 143.046875 133.667969 C 143.046875 133.996094 143.109375 134.308594 143.234375 134.613281 C 143.359375 134.914062 143.539062 135.179688 143.769531 135.414062 C 144 135.644531 144.265625 135.824219 144.570312 135.949219 C 144.871094 136.074219 145.1875 136.136719 145.515625 136.136719 L 180.085938 136.136719 C 180.414062 136.136719 180.730469 136.074219 181.03125 135.949219 C 181.335938 135.824219 181.601562 135.644531 181.832031 135.414062 C 182.0625 135.179688 182.242188 134.914062 182.367188 134.613281 C 182.492188 134.308594 182.554688 133.996094 182.554688 133.667969 L 182.554688 99.09375 C 182.554688 98.769531 182.492188 98.453125 182.367188 98.148438 C 182.242188 97.847656 182.0625 97.582031 181.832031 97.347656 C 181.601562 97.117188 181.335938 96.9375 181.03125 96.8125 C 180.730469 96.6875 180.414062 96.625 180.085938 96.625 Z M 177.617188 131.199219 L 147.984375 131.199219 L 147.984375 101.566406 L 177.617188 101.566406 Z M 177.617188 131.199219 " fill-opacity="1" fill-rule="nonzero"/></g><g clip-path="url(#1ff7722bbf)"><path fill="#2b7faf" d="M 229.476562 96.625 L 194.902344 96.625 C 194.574219 96.625 194.261719 96.6875 193.957031 96.8125 C 193.65625 96.9375 193.386719 97.117188 193.15625 97.347656 C 192.925781 97.582031 192.746094 97.847656 192.621094 98.148438 C 192.496094 98.453125 192.433594 98.769531 192.433594 99.09375 L 192.433594 133.667969 C 192.433594 133.996094 192.496094 134.308594 192.621094 134.613281 C 192.746094 134.914062 192.925781 135.179688 193.15625 135.414062 C 193.386719 135.644531 193.65625 135.824219 193.957031 135.949219 C 194.261719 136.074219 194.574219 136.136719 194.902344 136.136719 L 229.476562 136.136719 C 229.800781 136.136719 230.117188 136.074219 230.417969 135.949219 C 230.722656 135.824219 230.988281 135.644531 231.222656 135.414062 C 231.453125 135.179688 231.628906 134.914062 231.757812 134.613281 C 231.882812 134.308594 231.945312 133.996094 231.945312 133.667969 L 231.945312 99.09375 C 231.945312 98.769531 231.882812 98.453125 231.757812 98.148438 C 231.628906 97.847656 231.453125 97.582031 231.222656 97.347656 C 230.988281 97.117188 230.722656 96.9375 230.417969 96.8125 C 230.117188 96.6875 229.800781 96.625 229.476562 96.625 Z M 227.003906 131.199219 L 197.371094 131.199219 L 197.371094 101.566406 L 227.003906 101.566406 Z M 227.003906 131.199219 " fill-opacity="1" fill-rule="nonzero"/></g><g clip-path="url(#40ed4164d3)"><path fill="#2b7faf" d="M 180.085938 146.015625 L 145.515625 146.015625 C 145.1875 146.015625 144.871094 146.078125 144.570312 146.203125 C 144.265625 146.328125 144 146.503906 143.769531 146.738281 C 143.539062 146.96875 143.359375 147.234375 143.234375 147.539062 C 143.109375 147.839844 143.046875 148.15625 143.046875 148.484375 L 143.046875 183.054688 C 143.046875 183.382812 143.109375 183.695312 143.234375 184 C 143.359375 184.300781 143.539062 184.570312 143.769531 184.800781 C 144 185.03125 144.265625 185.210938 144.570312 185.335938 C 144.871094 185.460938 145.1875 185.523438 145.515625 185.523438 L 180.085938 185.523438 C 180.414062 185.523438 180.730469 185.460938 181.03125 185.335938 C 181.335938 185.210938 181.601562 185.03125 181.832031 184.800781 C 182.0625 184.570312 182.242188 184.300781 182.367188 184 C 182.492188 183.695312 182.554688 183.382812 182.554688 183.054688 L 182.554688 148.484375 C 182.554688 148.15625 182.492188 147.839844 182.367188 147.539062 C 182.242188 147.234375 182.0625 146.96875 181.832031 146.738281 C 181.601562 146.503906 181.335938 146.328125 181.03125 146.203125 C 180.730469 146.078125 180.414062 146.015625 180.085938 146.015625 Z M 177.617188 180.585938 L 147.984375 180.585938 L 147.984375 150.953125 L 177.617188 150.953125 Z M 177.617188 180.585938 " fill-opacity="1" fill-rule="nonzero"/></g><g clip-path="url(#508c10701d)"><path fill="#2b7faf" d="M 229.476562 146.015625 L 194.902344 146.015625 C 194.574219 146.015625 194.261719 146.078125 193.957031 146.203125 C 193.65625 146.328125 193.386719 146.503906 193.15625 146.738281 C 192.925781 146.96875 192.746094 147.234375 192.621094 147.539062 C 192.496094 147.839844 192.433594 148.15625 192.433594 148.484375 L 192.433594 183.054688 C 192.433594 183.382812 192.496094 183.695312 192.621094 184 C 192.746094 184.300781 192.925781 184.570312 193.15625 184.800781 C 193.386719 185.03125 193.65625 185.210938 193.957031 185.335938 C 194.261719 185.460938 194.574219 185.523438 194.902344 185.523438 L 229.476562 185.523438 C 229.800781 185.523438 230.117188 185.460938 230.417969 185.335938 C 230.722656 185.210938 230.988281 185.03125 231.222656 184.800781 C 231.453125 184.570312 231.628906 184.300781 231.757812 184 C 231.882812 183.695312 231.945312 183.382812 231.945312 183.054688 L 231.945312 148.484375 C 231.945312 148.15625 231.882812 147.839844 231.757812 147.539062 C 231.628906 147.234375 231.453125 146.96875 231.222656 146.738281 C 230.988281 146.503906 230.722656 146.328125 230.417969 146.203125 C 230.117188 146.078125 229.800781 146.015625 229.476562 146.015625 Z M 227.003906 180.585938 L 197.371094 180.585938 L 197.371094 150.953125 L 227.003906 150.953125 Z M 227.003906 180.585938 " fill-opacity="1" fill-rule="nonzero"/></g><path fill="#2b7faf" d="M 156.628906 118.851562 L 160.332031 118.851562 L 160.332031 122.554688 C 160.332031 122.882812 160.394531 123.195312 160.519531 123.5 C 160.644531 123.800781 160.824219 124.070312 161.054688 124.300781 C 161.285156 124.53125 161.554688 124.710938 161.855469 124.835938 C 162.160156 124.960938 162.472656 125.023438 162.800781 125.023438 C 163.128906 125.023438 163.441406 124.960938 163.746094 124.835938 C 164.046875 124.710938 164.316406 124.53125 164.546875 124.300781 C 164.777344 124.070312 164.957031 123.800781 165.082031 123.5 C 165.207031 123.195312 165.269531 122.882812 165.269531 122.554688 L 165.269531 118.851562 L 168.972656 118.851562 C 169.300781 118.851562 169.617188 118.789062 169.917969 118.664062 C 170.222656 118.535156 170.488281 118.359375 170.71875 118.128906 C 170.953125 117.894531 171.128906 117.628906 171.253906 117.324219 C 171.382812 117.023438 171.445312 116.707031 171.445312 116.382812 C 171.445312 116.054688 171.382812 115.738281 171.253906 115.4375 C 171.128906 115.132812 170.953125 114.867188 170.71875 114.636719 C 170.488281 114.402344 170.222656 114.226562 169.917969 114.097656 C 169.617188 113.972656 169.300781 113.910156 168.972656 113.910156 L 165.269531 113.910156 L 165.269531 110.207031 C 165.269531 109.878906 165.207031 109.566406 165.082031 109.261719 C 164.957031 108.960938 164.777344 108.691406 164.546875 108.460938 C 164.316406 108.230469 164.046875 108.050781 163.746094 107.925781 C 163.441406 107.800781 163.128906 107.738281 162.800781 107.738281 C 162.472656 107.738281 162.160156 107.800781 161.855469 107.925781 C 161.554688 108.050781 161.285156 108.230469 161.054688 108.460938 C 160.824219 108.691406 160.644531 108.960938 160.519531 109.261719 C 160.394531 109.566406 160.332031 109.878906 160.332031 110.207031 L 160.332031 113.910156 L 156.628906 113.910156 C 156.300781 113.910156 155.984375 113.972656 155.683594 114.097656 C 155.378906 114.226562 155.113281 114.402344 154.882812 114.636719 C 154.648438 114.867188 154.472656 115.132812 154.347656 115.4375 C 154.21875 115.738281 154.15625 116.054688 154.15625 116.382812 C 154.15625 116.707031 154.21875 117.023438 154.347656 117.324219 C 154.472656 117.628906 154.648438 117.894531 154.882812 118.128906 C 155.113281 118.359375 155.378906 118.535156 155.683594 118.664062 C 155.984375 118.789062 156.300781 118.851562 156.628906 118.851562 Z M 156.628906 118.851562 " fill-opacity="1" fill-rule="nonzero"/><path fill="#2b7faf" d="M 206.015625 118.851562 L 218.363281 118.851562 C 218.691406 118.851562 219.003906 118.789062 219.308594 118.664062 C 219.609375 118.535156 219.875 118.359375 220.109375 118.128906 C 220.339844 117.894531 220.519531 117.628906 220.644531 117.324219 C 220.769531 117.023438 220.832031 116.707031 220.832031 116.382812 C 220.832031 116.054688 220.769531 115.738281 220.644531 115.4375 C 220.519531 115.132812 220.339844 114.867188 220.109375 114.636719 C 219.875 114.402344 219.609375 114.226562 219.308594 114.097656 C 219.003906 113.972656 218.691406 113.910156 218.363281 113.910156 L 206.015625 113.910156 C 205.6875 113.910156 205.371094 113.972656 205.070312 114.097656 C 204.769531 114.226562 204.5 114.402344 204.269531 114.636719 C 204.039062 114.867188 203.859375 115.132812 203.734375 115.4375 C 203.609375 115.738281 203.546875 116.054688 203.546875 116.382812 C 203.546875 116.707031 203.609375 117.023438 203.734375 117.324219 C 203.859375 117.628906 204.039062 117.894531 204.269531 118.128906 C 204.5 118.359375 204.769531 118.535156 205.070312 118.664062 C 205.371094 118.789062 205.6875 118.851562 206.015625 118.851562 Z M 206.015625 118.851562 " fill-opacity="1" fill-rule="nonzero"/><path fill="#2b7faf" d="M 206.015625 173.175781 L 218.363281 173.175781 C 218.691406 173.175781 219.003906 173.113281 219.308594 172.988281 C 219.609375 172.863281 219.875 172.683594 220.109375 172.453125 C 220.339844 172.222656 220.519531 171.957031 220.644531 171.652344 C 220.769531 171.351562 220.832031 171.035156 220.832031 170.707031 C 220.832031 170.378906 220.769531 170.066406 220.644531 169.761719 C 220.519531 169.460938 220.339844 169.191406 220.109375 168.960938 C 219.875 168.730469 219.609375 168.550781 219.308594 168.425781 C 219.003906 168.300781 218.691406 168.238281 218.363281 168.238281 L 206.015625 168.238281 C 205.6875 168.238281 205.371094 168.300781 205.070312 168.425781 C 204.769531 168.550781 204.5 168.730469 204.269531 168.960938 C 204.039062 169.191406 203.859375 169.460938 203.734375 169.761719 C 203.609375 170.066406 203.546875 170.378906 203.546875 170.707031 C 203.546875 171.035156 203.609375 171.351562 203.734375 171.652344 C 203.859375 171.957031 204.039062 172.222656 204.269531 172.453125 C 204.5 172.683594 204.769531 172.863281 205.070312 172.988281 C 205.371094 173.113281 205.6875 173.175781 206.015625 173.175781 Z M 206.015625 173.175781 " fill-opacity="1" fill-rule="nonzero"/><path fill="#2b7faf" d="M 206.015625 163.300781 L 218.363281 163.300781 C 218.691406 163.300781 219.003906 163.238281 219.308594 163.113281 C 219.609375 162.984375 219.875 162.808594 220.109375 162.578125 C 220.339844 162.34375 220.519531 162.078125 220.644531 161.773438 C 220.769531 161.472656 220.832031 161.15625 220.832031 160.832031 C 220.832031 160.503906 220.769531 160.1875 220.644531 159.886719 C 220.519531 159.582031 220.339844 159.316406 220.109375 159.085938 C 219.875 158.851562 219.609375 158.675781 219.308594 158.546875 C 219.003906 158.421875 218.691406 158.359375 218.363281 158.359375 L 206.015625 158.359375 C 205.6875 158.359375 205.371094 158.421875 205.070312 158.546875 C 204.769531 158.675781 204.5 158.851562 204.269531 159.085938 C 204.039062 159.316406 203.859375 159.582031 203.734375 159.886719 C 203.609375 160.1875 203.546875 160.503906 203.546875 160.832031 C 203.546875 161.15625 203.609375 161.472656 203.734375 161.773438 C 203.859375 162.078125 204.039062 162.34375 204.269531 162.578125 C 204.5 162.808594 204.769531 162.984375 205.070312 163.113281 C 205.371094 163.238281 205.6875 163.300781 206.015625 163.300781 Z M 206.015625 163.300781 " fill-opacity="1" fill-rule="nonzero"/><path fill="#2b7faf" d="M 156.109375 172.457031 C 156.34375 172.6875 156.613281 172.867188 156.914062 172.992188 C 157.21875 173.117188 157.535156 173.175781 157.863281 173.175781 C 158.191406 173.175781 158.503906 173.117188 158.808594 172.992188 C 159.113281 172.867188 159.378906 172.6875 159.613281 172.457031 L 162.800781 169.269531 L 165.988281 172.457031 C 166.222656 172.6875 166.488281 172.867188 166.792969 172.992188 C 167.097656 173.117188 167.410156 173.175781 167.738281 173.175781 C 168.066406 173.175781 168.382812 173.117188 168.6875 172.992188 C 168.988281 172.867188 169.257812 172.6875 169.492188 172.457031 C 169.722656 172.226562 169.902344 171.960938 170.03125 171.65625 C 170.15625 171.351562 170.21875 171.035156 170.21875 170.707031 C 170.21875 170.378906 170.15625 170.0625 170.03125 169.757812 C 169.902344 169.457031 169.722656 169.1875 169.492188 168.957031 L 166.304688 165.769531 L 169.492188 162.582031 C 169.722656 162.347656 169.902344 162.082031 170.027344 161.777344 C 170.152344 161.472656 170.214844 161.160156 170.214844 160.832031 C 170.214844 160.503906 170.152344 160.1875 170.027344 159.882812 C 169.898438 159.582031 169.722656 159.3125 169.488281 159.082031 C 169.257812 158.847656 168.988281 158.667969 168.6875 158.542969 C 168.382812 158.417969 168.066406 158.355469 167.738281 158.355469 C 167.410156 158.355469 167.09375 158.417969 166.792969 158.542969 C 166.488281 158.667969 166.222656 158.847656 165.988281 159.078125 L 162.800781 162.265625 L 159.613281 159.078125 C 159.382812 158.847656 159.113281 158.667969 158.808594 158.542969 C 158.507812 158.414062 158.191406 158.351562 157.863281 158.351562 C 157.53125 158.351562 157.21875 158.414062 156.914062 158.539062 C 156.609375 158.667969 156.34375 158.84375 156.109375 159.078125 C 155.878906 159.308594 155.699219 159.578125 155.574219 159.882812 C 155.445312 160.183594 155.382812 160.5 155.382812 160.828125 C 155.382812 161.160156 155.449219 161.472656 155.574219 161.777344 C 155.699219 162.082031 155.878906 162.347656 156.109375 162.582031 L 159.296875 165.769531 L 156.109375 168.957031 C 155.878906 169.1875 155.699219 169.457031 155.570312 169.757812 C 155.445312 170.0625 155.382812 170.378906 155.382812 170.707031 C 155.382812 171.035156 155.445312 171.351562 155.570312 171.65625 C 155.699219 171.960938 155.878906 172.226562 156.109375 172.457031 Z M 156.109375 172.457031 " fill-opacity="1" fill-rule="nonzero"/><g fill="#2b7faf" fill-opacity="1"><g transform="translate(44.832226, 236.83784)"><g><path d="M 30.585938 -26.597656 L 25.34375 -26.597656 C 25.039062 -26.597656 24.773438 -26.484375 24.660156 -26.214844 L 16.90625 -6.839844 L 9.082031 -26.214844 C 8.96875 -26.484375 8.699219 -26.597656 8.398438 -26.597656 L 3.191406 -26.597656 C 2.851562 -26.597656 2.621094 -26.367188 2.621094 -26.027344 L 2.621094 -0.570312 C 2.621094 -0.226562 2.851562 0 3.191406 0 L 7.941406 0 C 8.28125 0 8.511719 -0.226562 8.511719 -0.570312 L 8.511719 -15.617188 L 9.003906 -13.792969 L 14.097656 -0.457031 C 14.210938 -0.152344 14.515625 0 14.816406 0 L 18.996094 0 C 19.300781 0 19.566406 -0.152344 19.679688 -0.457031 L 24.773438 -13.792969 L 25.265625 -15.578125 L 25.265625 -0.570312 C 25.265625 -0.226562 25.496094 0 25.835938 0 L 30.585938 0 C 30.929688 0 31.15625 -0.226562 31.15625 -0.570312 L 31.15625 -26.027344 C 31.15625 -26.367188 30.929688 -26.597656 30.585938 -26.597656 Z M 30.585938 -26.597656 "/></g></g></g><g fill="#2b7faf" fill-opacity="1"><g transform="translate(77.847321, 236.83784)"><g><path d="M 19.984375 -9.726562 C 19.984375 -14.742188 16.527344 -18.996094 11.132812 -18.996094 C 5.699219 -18.996094 1.671875 -14.742188 1.671875 -9.382812 C 1.671875 -4.027344 5.699219 0.265625 11.550781 0.265625 C 14.25 0.265625 16.679688 -0.796875 18.464844 -2.582031 C 18.769531 -2.886719 18.769531 -3.152344 18.542969 -3.417969 L 16.566406 -5.320312 C 16.300781 -5.585938 16.070312 -5.625 15.730469 -5.394531 C 14.398438 -4.558594 13.335938 -4.292969 12.121094 -4.292969 C 9.574219 -4.292969 7.902344 -5.355469 7.332031 -7.371094 L 18.617188 -7.371094 C 19.796875 -7.371094 19.984375 -8.167969 19.984375 -9.726562 Z M 11.171875 -14.171875 C 12.996094 -14.171875 14.550781 -13.144531 14.933594 -10.980469 L 7.257812 -10.980469 C 7.675781 -13.144531 9.269531 -14.171875 11.171875 -14.171875 Z M 11.171875 -14.171875 "/></g></g></g><g fill="#2b7faf" fill-opacity="1"><g transform="translate(98.742895, 236.83784)"><g><path d="M 15.273438 -18.085938 C 14.742188 -18.578125 13.792969 -19.035156 12.691406 -19.035156 C 10.410156 -19.035156 8.851562 -17.707031 7.902344 -15.882812 L 7.75 -18.046875 C 7.714844 -18.390625 7.523438 -18.617188 7.179688 -18.617188 L 2.8125 -18.617188 C 2.46875 -18.617188 2.242188 -18.390625 2.242188 -18.046875 L 2.242188 -0.570312 C 2.242188 -0.226562 2.46875 0 2.8125 0 L 7.371094 0 C 7.714844 0 7.941406 -0.226562 7.941406 -0.570312 L 7.941406 -9.839844 C 7.941406 -12.121094 9.347656 -13.867188 11.703125 -13.867188 C 12.425781 -13.867188 12.878906 -13.679688 13.261719 -13.5625 C 13.714844 -13.449219 14.058594 -13.527344 14.210938 -13.980469 L 15.464844 -17.25 C 15.578125 -17.515625 15.578125 -17.820312 15.273438 -18.085938 Z M 15.273438 -18.085938 "/></g></g></g><g fill="#2b7faf" fill-opacity="1"><g transform="translate(114.015624, 236.83784)"><g><path d="M 11.359375 0.378906 C 16.753906 0.378906 21.085938 -3.914062 21.085938 -9.308594 C 21.085938 -14.742188 16.753906 -19.035156 11.359375 -19.035156 C 6.003906 -19.035156 1.671875 -14.742188 1.671875 -9.308594 C 1.671875 -3.914062 6.003906 0.378906 11.359375 0.378906 Z M 11.359375 -4.902344 C 9.042969 -4.902344 7.144531 -6.761719 7.144531 -9.308594 C 7.144531 -11.890625 9.042969 -13.753906 11.359375 -13.753906 C 13.714844 -13.753906 15.578125 -11.890625 15.578125 -9.308594 C 15.578125 -6.761719 13.714844 -4.902344 11.359375 -4.902344 Z M 11.359375 -4.902344 "/></g></g></g><g fill="#2b7faf" fill-opacity="1"><g transform="translate(136.012975, 236.83784)"><g/></g></g><g fill="#2b7faf" fill-opacity="1"><g transform="translate(145.890805, 236.83784)"><g><path d="M 22.074219 -7.371094 C 21.847656 -7.636719 21.542969 -7.636719 21.277344 -7.410156 C 19.757812 -6.117188 17.894531 -5.28125 15.578125 -5.28125 C 11.285156 -5.28125 7.941406 -8.699219 7.941406 -13.183594 C 7.941406 -17.707031 11.285156 -21.125 15.578125 -21.125 C 17.894531 -21.125 19.757812 -20.289062 21.277344 -18.996094 C 21.542969 -18.769531 21.847656 -18.769531 22.074219 -19.035156 L 25 -22.226562 C 25.230469 -22.492188 25.265625 -22.722656 25 -23.023438 C 22.683594 -25.417969 19.339844 -26.902344 15.617188 -26.902344 C 7.980469 -26.902344 1.863281 -20.859375 1.863281 -13.183594 C 1.863281 -5.546875 7.980469 0.492188 15.617188 0.492188 C 19.339844 0.492188 22.683594 -0.988281 25 -3.417969 C 25.265625 -3.683594 25.230469 -3.953125 25 -4.21875 Z M 22.074219 -7.371094 "/></g></g></g><g fill="#2b7faf" fill-opacity="1"><g transform="translate(171.991308, 236.83784)"><g><path d="M 20.667969 -18.617188 L 16.792969 -18.617188 C 16.453125 -18.617188 16.261719 -18.390625 16.222656 -18.046875 L 16.035156 -16.335938 C 14.78125 -17.933594 13.03125 -18.996094 10.675781 -18.996094 C 5.472656 -18.996094 1.671875 -14.703125 1.671875 -9.269531 C 1.671875 -3.953125 5.472656 0.265625 10.675781 0.265625 C 13.109375 0.265625 14.816406 -0.722656 15.996094 -2.164062 L 16.222656 -0.570312 C 16.261719 -0.226562 16.453125 0 16.792969 0 L 20.667969 0 C 21.011719 0 21.238281 -0.226562 21.238281 -0.570312 L 21.238281 -18.046875 C 21.238281 -18.390625 21.011719 -18.617188 20.667969 -18.617188 Z M 11.359375 -4.9375 C 8.929688 -4.9375 7.144531 -6.726562 7.144531 -9.308594 C 7.144531 -11.96875 8.929688 -13.792969 11.359375 -13.792969 C 13.867188 -13.792969 15.539062 -11.816406 15.539062 -9.308594 C 15.539062 -6.761719 13.867188 -4.9375 11.359375 -4.9375 Z M 11.359375 -4.9375 "/></g></g></g><g fill="#2b7faf" fill-opacity="1"><g transform="translate(194.710507, 236.83784)"><g><path d="M 2.242188 -27.167969 L 2.242188 -0.570312 C 2.242188 -0.226562 2.46875 0 2.8125 0 L 7.371094 0 C 7.714844 0 7.941406 -0.226562 7.941406 -0.570312 L 7.941406 -27.167969 C 7.941406 -27.507812 7.714844 -27.738281 7.371094 -27.738281 L 2.8125 -27.738281 C 2.46875 -27.738281 2.242188 -27.507812 2.242188 -27.167969 Z M 2.242188 -27.167969 "/></g></g></g><g fill="#2b7faf" fill-opacity="1"><g transform="translate(204.132427, 236.83784)"><g><path d="M 11.359375 -5.015625 C 8.890625 -5.015625 7.144531 -6.953125 7.144531 -9.421875 C 7.144531 -11.816406 8.890625 -13.714844 11.359375 -13.714844 C 12.652344 -13.714844 13.714844 -13.222656 14.78125 -12.273438 C 15.085938 -12.007812 15.351562 -11.96875 15.617188 -12.234375 L 18.351562 -14.894531 C 18.578125 -15.121094 18.617188 -15.425781 18.390625 -15.691406 C 16.640625 -17.707031 14.097656 -18.996094 11.207031 -18.996094 C 5.851562 -18.996094 1.671875 -14.742188 1.671875 -9.421875 C 1.671875 -4.027344 5.851562 0.265625 11.207031 0.265625 C 14.171875 0.265625 16.753906 -1.027344 18.503906 -3.039062 C 18.730469 -3.304688 18.695312 -3.609375 18.464844 -3.835938 L 15.730469 -6.460938 C 15.464844 -6.726562 15.199219 -6.726562 14.894531 -6.460938 C 13.832031 -5.546875 12.726562 -5.015625 11.359375 -5.015625 Z M 11.359375 -5.015625 "/></g></g></g><g fill="#2b7faf" fill-opacity="1"><g transform="translate(223.508315, 236.83784)"><g><path d="M 19.679688 -18.617188 L 15.121094 -18.617188 C 14.78125 -18.617188 14.550781 -18.390625 14.550781 -18.046875 L 14.550781 -8.132812 C 14.550781 -6.726562 13.449219 -4.824219 11.019531 -4.824219 C 9.574219 -4.824219 7.75 -5.660156 7.75 -8.664062 L 7.75 -18.046875 C 7.75 -18.390625 7.523438 -18.617188 7.179688 -18.617188 L 2.621094 -18.617188 C 2.28125 -18.617188 2.050781 -18.390625 2.050781 -18.046875 L 2.050781 -7.523438 C 2.050781 -2.546875 5.015625 0.492188 9.15625 0.492188 C 11.398438 0.492188 13.296875 -0.796875 14.550781 -2.582031 L 14.703125 -0.570312 C 14.742188 -0.226562 14.933594 0 15.273438 0 L 19.679688 0 C 20.023438 0 20.25 -0.226562 20.25 -0.570312 L 20.25 -18.046875 C 20.25 -18.390625 20.023438 -18.617188 19.679688 -18.617188 Z M 19.679688 -18.617188 "/></g></g></g><g fill="#2b7faf" fill-opacity="1"><g transform="translate(245.239728, 236.83784)"><g><path d="M 2.242188 -27.167969 L 2.242188 -0.570312 C 2.242188 -0.226562 2.46875 0 2.8125 0 L 7.371094 0 C 7.714844 0 7.941406 -0.226562 7.941406 -0.570312 L 7.941406 -27.167969 C 7.941406 -27.507812 7.714844 -27.738281 7.371094 -27.738281 L 2.8125 -27.738281 C 2.46875 -27.738281 2.242188 -27.507812 2.242188 -27.167969 Z M 2.242188 -27.167969 "/></g></g></g><g fill="#2b7faf" fill-opacity="1"><g transform="translate(254.661648, 236.83784)"><g><path d="M 20.667969 -18.617188 L 16.792969 -18.617188 C 16.453125 -18.617188 16.261719 -18.390625 16.222656 -18.046875 L 16.035156 -16.335938 C 14.78125 -17.933594 13.03125 -18.996094 10.675781 -18.996094 C 5.472656 -18.996094 1.671875 -14.703125 1.671875 -9.269531 C 1.671875 -3.953125 5.472656 0.265625 10.675781 0.265625 C 13.109375 0.265625 14.816406 -0.722656 15.996094 -2.164062 L 16.222656 -0.570312 C 16.261719 -0.226562 16.453125 0 16.792969 0 L 20.667969 0 C 21.011719 0 21.238281 -0.226562 21.238281 -0.570312 L 21.238281 -18.046875 C 21.238281 -18.390625 21.011719 -18.617188 20.667969 -18.617188 Z M 11.359375 -4.9375 C 8.929688 -4.9375 7.144531 -6.726562 7.144531 -9.308594 C 7.144531 -11.96875 8.929688 -13.792969 11.359375 -13.792969 C 13.867188 -13.792969 15.539062 -11.816406 15.539062 -9.308594 C 15.539062 -6.761719 13.867188 -4.9375 11.359375 -4.9375 Z M 11.359375 -4.9375 "/></g></g></g><g fill="#2b7faf" fill-opacity="1"><g transform="translate(277.380847, 236.83784)"><g><path d="M 13.640625 -18.617188 L 10.601562 -18.617188 L 10.601562 -23.746094 C 10.601562 -24.089844 10.371094 -24.316406 10.03125 -24.316406 L 5.472656 -24.316406 C 5.128906 -24.316406 4.902344 -24.089844 4.902344 -23.746094 L 4.902344 -18.617188 L 1.863281 -18.617188 C 1.519531 -18.617188 1.292969 -18.390625 1.292969 -18.046875 L 1.292969 -14.589844 C 1.292969 -14.25 1.519531 -14.019531 1.863281 -14.019531 L 4.902344 -14.019531 L 4.902344 -0.570312 C 4.902344 -0.226562 5.128906 0 5.472656 0 L 10.03125 0 C 10.371094 0 10.601562 -0.226562 10.601562 -0.570312 L 10.601562 -14.019531 L 13.640625 -14.019531 C 13.980469 -14.019531 14.210938 -14.25 14.210938 -14.589844 L 14.210938 -18.046875 C 14.210938 -18.390625 13.980469 -18.617188 13.640625 -18.617188 Z M 13.640625 -18.617188 "/></g></g></g><g fill="#2b7faf" fill-opacity="1"><g transform="translate(292.121683, 236.83784)"><g><path d="M 11.359375 0.378906 C 16.753906 0.378906 21.085938 -3.914062 21.085938 -9.308594 C 21.085938 -14.742188 16.753906 -19.035156 11.359375 -19.035156 C 6.003906 -19.035156 1.671875 -14.742188 1.671875 -9.308594 C 1.671875 -3.914062 6.003906 0.378906 11.359375 0.378906 Z M 11.359375 -4.902344 C 9.042969 -4.902344 7.144531 -6.761719 7.144531 -9.308594 C 7.144531 -11.890625 9.042969 -13.753906 11.359375 -13.753906 C 13.714844 -13.753906 15.578125 -11.890625 15.578125 -9.308594 C 15.578125 -6.761719 13.714844 -4.902344 11.359375 -4.902344 Z M 11.359375 -4.902344 "/></g></g></g><g fill="#2b7faf" fill-opacity="1"><g transform="translate(314.119034, 236.83784)"><g><path d="M 15.273438 -18.085938 C 14.742188 -18.578125 13.792969 -19.035156 12.691406 -19.035156 C 10.410156 -19.035156 8.851562 -17.707031 7.902344 -15.882812 L 7.75 -18.046875 C 7.714844 -18.390625 7.523438 -18.617188 7.179688 -18.617188 L 2.8125 -18.617188 C 2.46875 -18.617188 2.242188 -18.390625 2.242188 -18.046875 L 2.242188 -0.570312 C 2.242188 -0.226562 2.46875 0 2.8125 0 L 7.371094 0 C 7.714844 0 7.941406 -0.226562 7.941406 -0.570312 L 7.941406 -9.839844 C 7.941406 -12.121094 9.347656 -13.867188 11.703125 -13.867188 C 12.425781 -13.867188 12.878906 -13.679688 13.261719 -13.5625 C 13.714844 -13.449219 14.058594 -13.527344 14.210938 -13.980469 L 15.464844 -17.25 C 15.578125 -17.515625 15.578125 -17.820312 15.273438 -18.085938 Z M 15.273438 -18.085938 "/></g></g></g></svg>