<svg xmlns="http://www.w3.org/2000/svg" xmlns:xlink="http://www.w3.org/1999/xlink" width="100" zoomAndPan="magnify" viewBox="0 0 75 30.000001" height="40" preserveAspectRatio="xMidYMid meet" version="1.0"><defs><g/><clipPath id="d0ef42b51a"><path d="M 1.210938 0 L 73.789062 0 L 73.789062 29.03125 L 1.210938 29.03125 Z M 1.210938 0 " clip-rule="nonzero"/></clipPath><clipPath id="f43c2f90e5"><path d="M 31.660156 4.453125 L 37 4.453125 L 37 10 L 31.660156 10 Z M 31.660156 4.453125 " clip-rule="nonzero"/></clipPath><clipPath id="0b1ad34e6c"><path d="M 38 4.453125 L 43.386719 4.453125 L 43.386719 10 L 38 10 Z M 38 4.453125 " clip-rule="nonzero"/></clipPath><clipPath id="20360bd468"><path d="M 31.660156 10 L 37 10 L 37 16.179688 L 31.660156 16.179688 Z M 31.660156 10 " clip-rule="nonzero"/></clipPath><clipPath id="0ecba441cd"><path d="M 38 10 L 43.386719 10 L 43.386719 16.179688 L 38 16.179688 Z M 38 10 " clip-rule="nonzero"/></clipPath></defs><g clip-path="url(#d0ef42b51a)"><path fill="#ffffff" d="M 1.210938 0 L 73.789062 0 L 73.789062 29.03125 L 1.210938 29.03125 Z M 1.210938 0 " fill-opacity="1" fill-rule="nonzero"/><path fill="#ffffff" d="M 1.210938 0 L 73.789062 0 L 73.789062 29.03125 L 1.210938 29.03125 Z M 1.210938 0 " fill-opacity="1" fill-rule="nonzero"/></g><g clip-path="url(#f43c2f90e5)"><path fill="#2b7faf" d="M 36.527344 4.453125 L 31.984375 4.453125 C 31.894531 4.453125 31.820312 4.488281 31.753906 4.550781 C 31.691406 4.613281 31.660156 4.691406 31.660156 4.777344 L 31.660156 9.320312 C 31.660156 9.410156 31.691406 9.488281 31.753906 9.550781 C 31.820312 9.613281 31.894531 9.644531 31.984375 9.644531 L 36.527344 9.644531 C 36.617188 9.644531 36.691406 9.613281 36.753906 9.550781 C 36.820312 9.488281 36.851562 9.410156 36.851562 9.320312 L 36.851562 4.777344 C 36.851562 4.691406 36.820312 4.613281 36.753906 4.550781 C 36.691406 4.488281 36.617188 4.453125 36.527344 4.453125 Z M 36.203125 8.996094 L 32.308594 8.996094 L 32.308594 5.105469 L 36.203125 5.105469 Z M 36.203125 8.996094 " fill-opacity="1" fill-rule="nonzero"/></g><g clip-path="url(#0b1ad34e6c)"><path fill="#2b7faf" d="M 43.015625 4.453125 L 38.472656 4.453125 C 38.382812 4.453125 38.304688 4.488281 38.242188 4.550781 C 38.179688 4.613281 38.148438 4.691406 38.148438 4.777344 L 38.148438 9.320312 C 38.148438 9.410156 38.179688 9.488281 38.242188 9.550781 C 38.304688 9.613281 38.382812 9.644531 38.472656 9.644531 L 43.015625 9.644531 C 43.105469 9.644531 43.179688 9.613281 43.242188 9.550781 C 43.308594 9.488281 43.339844 9.410156 43.339844 9.320312 L 43.339844 4.777344 C 43.339844 4.691406 43.308594 4.613281 43.242188 4.550781 C 43.179688 4.488281 43.105469 4.453125 43.015625 4.453125 Z M 42.691406 8.996094 L 38.796875 8.996094 L 38.796875 5.105469 L 42.691406 5.105469 Z M 42.691406 8.996094 " fill-opacity="1" fill-rule="nonzero"/></g><g clip-path="url(#20360bd468)"><path fill="#2b7faf" d="M 36.527344 10.941406 L 31.984375 10.941406 C 31.894531 10.941406 31.820312 10.972656 31.753906 11.039062 C 31.691406 11.101562 31.660156 11.175781 31.660156 11.265625 L 31.660156 15.808594 C 31.660156 15.898438 31.691406 15.976562 31.753906 16.039062 C 31.820312 16.101562 31.894531 16.132812 31.984375 16.132812 L 36.527344 16.132812 C 36.617188 16.132812 36.691406 16.101562 36.753906 16.039062 C 36.820312 15.976562 36.851562 15.898438 36.851562 15.808594 L 36.851562 11.265625 C 36.851562 11.175781 36.820312 11.101562 36.753906 11.039062 C 36.691406 10.972656 36.617188 10.941406 36.527344 10.941406 Z M 36.203125 15.484375 L 32.308594 15.484375 L 32.308594 11.589844 L 36.203125 11.589844 Z M 36.203125 15.484375 " fill-opacity="1" fill-rule="nonzero"/></g><g clip-path="url(#0ecba441cd)"><path fill="#2b7faf" d="M 43.015625 10.941406 L 38.472656 10.941406 C 38.382812 10.941406 38.304688 10.972656 38.242188 11.039062 C 38.179688 11.101562 38.148438 11.175781 38.148438 11.265625 L 38.148438 15.808594 C 38.148438 15.898438 38.179688 15.976562 38.242188 16.039062 C 38.304688 16.101562 38.382812 16.132812 38.472656 16.132812 L 43.015625 16.132812 C 43.105469 16.132812 43.179688 16.101562 43.242188 16.039062 C 43.308594 15.976562 43.339844 15.898438 43.339844 15.808594 L 43.339844 11.265625 C 43.339844 11.175781 43.308594 11.101562 43.242188 11.039062 C 43.179688 10.972656 43.105469 10.941406 43.015625 10.941406 Z M 42.691406 15.484375 L 38.796875 15.484375 L 38.796875 11.589844 L 42.691406 11.589844 Z M 42.691406 15.484375 " fill-opacity="1" fill-rule="nonzero"/></g><path fill="#2b7faf" d="M 33.445312 7.375 L 33.929688 7.375 L 33.929688 7.859375 C 33.929688 7.949219 33.960938 8.027344 34.027344 8.089844 C 34.089844 8.152344 34.164062 8.183594 34.253906 8.183594 C 34.34375 8.183594 34.421875 8.152344 34.484375 8.089844 C 34.546875 8.027344 34.578125 7.949219 34.578125 7.859375 L 34.578125 7.375 L 35.066406 7.375 C 35.15625 7.375 35.230469 7.34375 35.296875 7.28125 C 35.359375 7.214844 35.390625 7.140625 35.390625 7.050781 C 35.390625 6.960938 35.359375 6.882812 35.296875 6.820312 C 35.230469 6.757812 35.15625 6.726562 35.066406 6.726562 L 34.578125 6.726562 L 34.578125 6.238281 C 34.578125 6.148438 34.546875 6.074219 34.484375 6.007812 C 34.421875 5.945312 34.34375 5.914062 34.253906 5.914062 C 34.164062 5.914062 34.089844 5.945312 34.027344 6.007812 C 33.960938 6.074219 33.929688 6.148438 33.929688 6.238281 L 33.929688 6.726562 L 33.445312 6.726562 C 33.355469 6.726562 33.277344 6.757812 33.214844 6.820312 C 33.152344 6.882812 33.121094 6.960938 33.121094 7.050781 C 33.121094 7.140625 33.152344 7.214844 33.214844 7.28125 C 33.277344 7.34375 33.355469 7.375 33.445312 7.375 Z M 33.445312 7.375 " fill-opacity="1" fill-rule="nonzero"/><path fill="#2b7faf" d="M 39.933594 7.375 L 41.554688 7.375 C 41.644531 7.375 41.71875 7.34375 41.785156 7.28125 C 41.847656 7.214844 41.878906 7.140625 41.878906 7.050781 C 41.878906 6.960938 41.847656 6.882812 41.785156 6.820312 C 41.71875 6.757812 41.644531 6.726562 41.554688 6.726562 L 39.933594 6.726562 C 39.84375 6.726562 39.765625 6.757812 39.703125 6.820312 C 39.640625 6.882812 39.609375 6.960938 39.609375 7.050781 C 39.609375 7.140625 39.640625 7.214844 39.703125 7.28125 C 39.765625 7.34375 39.84375 7.375 39.933594 7.375 Z M 39.933594 7.375 " fill-opacity="1" fill-rule="nonzero"/><path fill="#2b7faf" d="M 39.933594 14.511719 L 41.554688 14.511719 C 41.644531 14.511719 41.71875 14.480469 41.785156 14.417969 C 41.847656 14.351562 41.878906 14.277344 41.878906 14.1875 C 41.878906 14.097656 41.847656 14.019531 41.785156 13.957031 C 41.71875 13.894531 41.644531 13.863281 41.554688 13.863281 L 39.933594 13.863281 C 39.84375 13.863281 39.765625 13.894531 39.703125 13.957031 C 39.640625 14.019531 39.609375 14.097656 39.609375 14.1875 C 39.609375 14.277344 39.640625 14.351562 39.703125 14.417969 C 39.765625 14.480469 39.84375 14.511719 39.933594 14.511719 Z M 39.933594 14.511719 " fill-opacity="1" fill-rule="nonzero"/><path fill="#2b7faf" d="M 39.933594 13.214844 L 41.554688 13.214844 C 41.644531 13.214844 41.71875 13.183594 41.785156 13.117188 C 41.847656 13.054688 41.878906 12.980469 41.878906 12.890625 C 41.878906 12.800781 41.847656 12.722656 41.785156 12.660156 C 41.71875 12.597656 41.644531 12.566406 41.554688 12.566406 L 39.933594 12.566406 C 39.84375 12.566406 39.765625 12.597656 39.703125 12.660156 C 39.640625 12.722656 39.609375 12.800781 39.609375 12.890625 C 39.609375 12.980469 39.640625 13.054688 39.703125 13.117188 C 39.765625 13.183594 39.84375 13.214844 39.933594 13.214844 Z M 39.933594 13.214844 " fill-opacity="1" fill-rule="nonzero"/><path fill="#2b7faf" d="M 33.375 14.417969 C 33.441406 14.480469 33.515625 14.511719 33.605469 14.511719 C 33.695312 14.511719 33.773438 14.480469 33.835938 14.417969 L 34.253906 14 L 34.675781 14.417969 C 34.738281 14.480469 34.816406 14.511719 34.902344 14.511719 C 34.992188 14.511719 35.070312 14.480469 35.132812 14.417969 C 35.199219 14.351562 35.230469 14.277344 35.230469 14.1875 C 35.230469 14.097656 35.199219 14.019531 35.132812 13.957031 L 34.714844 13.539062 L 35.132812 13.121094 C 35.199219 13.054688 35.230469 12.980469 35.230469 12.890625 C 35.230469 12.800781 35.199219 12.722656 35.132812 12.660156 C 35.070312 12.597656 34.992188 12.5625 34.902344 12.5625 C 34.8125 12.5625 34.738281 12.597656 34.675781 12.660156 L 34.253906 13.078125 L 33.835938 12.660156 C 33.773438 12.59375 33.695312 12.5625 33.605469 12.5625 C 33.515625 12.5625 33.441406 12.59375 33.375 12.660156 C 33.3125 12.722656 33.28125 12.800781 33.28125 12.890625 C 33.28125 12.980469 33.3125 13.054688 33.375 13.121094 L 33.796875 13.539062 L 33.375 13.957031 C 33.3125 14.019531 33.28125 14.097656 33.28125 14.1875 C 33.28125 14.277344 33.3125 14.351562 33.375 14.417969 Z M 33.375 14.417969 " fill-opacity="1" fill-rule="nonzero"/><g fill="#2b7faf" fill-opacity="1"><g transform="translate(18.757728, 23.59885)"><g><path d="M 4.019531 -3.492188 L 3.328125 -3.492188 C 3.289062 -3.492188 3.253906 -3.480469 3.238281 -3.445312 L 2.222656 -0.898438 L 1.191406 -3.445312 C 1.179688 -3.480469 1.144531 -3.492188 1.101562 -3.492188 L 0.417969 -3.492188 C 0.375 -3.492188 0.34375 -3.464844 0.34375 -3.417969 L 0.34375 -0.0742188 C 0.34375 -0.03125 0.375 0 0.417969 0 L 1.042969 0 C 1.089844 0 1.117188 -0.03125 1.117188 -0.0742188 L 1.117188 -2.050781 L 1.183594 -1.8125 L 1.851562 -0.0585938 C 1.867188 -0.0195312 1.90625 0 1.945312 0 L 2.496094 0 C 2.535156 0 2.570312 -0.0195312 2.585938 -0.0585938 L 3.253906 -1.8125 L 3.320312 -2.046875 L 3.320312 -0.0742188 C 3.320312 -0.03125 3.347656 0 3.394531 0 L 4.019531 0 C 4.0625 0 4.09375 -0.03125 4.09375 -0.0742188 L 4.09375 -3.417969 C 4.09375 -3.464844 4.0625 -3.492188 4.019531 -3.492188 Z M 4.019531 -3.492188 "/></g></g></g><g fill="#2b7faf" fill-opacity="1"><g transform="translate(23.094923, 23.59885)"><g><path d="M 2.625 -1.277344 C 2.625 -1.9375 2.171875 -2.496094 1.460938 -2.496094 C 0.75 -2.496094 0.21875 -1.9375 0.21875 -1.234375 C 0.21875 -0.527344 0.75 0.0351562 1.515625 0.0351562 C 1.871094 0.0351562 2.191406 -0.105469 2.425781 -0.339844 C 2.464844 -0.378906 2.464844 -0.414062 2.4375 -0.449219 L 2.175781 -0.699219 C 2.140625 -0.734375 2.113281 -0.738281 2.066406 -0.707031 C 1.890625 -0.597656 1.753906 -0.5625 1.59375 -0.5625 C 1.257812 -0.5625 1.039062 -0.703125 0.964844 -0.96875 L 2.445312 -0.96875 C 2.601562 -0.96875 2.625 -1.074219 2.625 -1.277344 Z M 1.46875 -1.863281 C 1.707031 -1.863281 1.910156 -1.726562 1.960938 -1.441406 L 0.953125 -1.441406 C 1.007812 -1.726562 1.21875 -1.863281 1.46875 -1.863281 Z M 1.46875 -1.863281 "/></g></g></g><g fill="#2b7faf" fill-opacity="1"><g transform="translate(25.839975, 23.59885)"><g><path d="M 2.007812 -2.375 C 1.9375 -2.441406 1.8125 -2.5 1.667969 -2.5 C 1.367188 -2.5 1.164062 -2.324219 1.039062 -2.085938 L 1.019531 -2.371094 C 1.011719 -2.414062 0.988281 -2.445312 0.945312 -2.445312 L 0.371094 -2.445312 C 0.324219 -2.445312 0.292969 -2.414062 0.292969 -2.371094 L 0.292969 -0.0742188 C 0.292969 -0.03125 0.324219 0 0.371094 0 L 0.96875 0 C 1.011719 0 1.042969 -0.03125 1.042969 -0.0742188 L 1.042969 -1.292969 C 1.042969 -1.59375 1.226562 -1.820312 1.539062 -1.820312 C 1.632812 -1.820312 1.691406 -1.796875 1.742188 -1.78125 C 1.800781 -1.765625 1.847656 -1.777344 1.867188 -1.835938 L 2.03125 -2.265625 C 2.046875 -2.300781 2.046875 -2.339844 2.007812 -2.375 Z M 2.007812 -2.375 "/></g></g></g><g fill="#2b7faf" fill-opacity="1"><g transform="translate(27.846354, 23.59885)"><g><path d="M 1.492188 0.0507812 C 2.203125 0.0507812 2.769531 -0.515625 2.769531 -1.222656 C 2.769531 -1.9375 2.203125 -2.5 1.492188 -2.5 C 0.789062 -2.5 0.21875 -1.9375 0.21875 -1.222656 C 0.21875 -0.515625 0.789062 0.0507812 1.492188 0.0507812 Z M 1.492188 -0.644531 C 1.1875 -0.644531 0.9375 -0.886719 0.9375 -1.222656 C 0.9375 -1.5625 1.1875 -1.808594 1.492188 -1.808594 C 1.800781 -1.808594 2.046875 -1.5625 2.046875 -1.222656 C 2.046875 -0.886719 1.800781 -0.644531 1.492188 -0.644531 Z M 1.492188 -0.644531 "/></g></g></g><g fill="#2b7faf" fill-opacity="1"><g transform="translate(30.736147, 23.59885)"><g/></g></g><g fill="#2b7faf" fill-opacity="1"><g transform="translate(32.033798, 23.59885)"><g><path d="M 2.898438 -0.96875 C 2.871094 -1.003906 2.832031 -1.003906 2.796875 -0.972656 C 2.59375 -0.804688 2.351562 -0.695312 2.046875 -0.695312 C 1.484375 -0.695312 1.042969 -1.144531 1.042969 -1.730469 C 1.042969 -2.324219 1.484375 -2.773438 2.046875 -2.773438 C 2.351562 -2.773438 2.59375 -2.664062 2.796875 -2.496094 C 2.832031 -2.464844 2.871094 -2.464844 2.898438 -2.5 L 3.285156 -2.921875 C 3.3125 -2.953125 3.320312 -2.984375 3.285156 -3.023438 C 2.980469 -3.339844 2.539062 -3.535156 2.050781 -3.535156 C 1.046875 -3.535156 0.246094 -2.742188 0.246094 -1.730469 C 0.246094 -0.730469 1.046875 0.0664062 2.050781 0.0664062 C 2.539062 0.0664062 2.980469 -0.128906 3.285156 -0.449219 C 3.320312 -0.484375 3.3125 -0.519531 3.285156 -0.554688 Z M 2.898438 -0.96875 "/></g></g></g><g fill="#2b7faf" fill-opacity="1"><g transform="translate(35.462623, 23.59885)"><g><path d="M 2.714844 -2.445312 L 2.207031 -2.445312 C 2.160156 -2.445312 2.136719 -2.414062 2.132812 -2.371094 L 2.105469 -2.144531 C 1.941406 -2.355469 1.710938 -2.496094 1.402344 -2.496094 C 0.71875 -2.496094 0.21875 -1.933594 0.21875 -1.21875 C 0.21875 -0.519531 0.71875 0.0351562 1.402344 0.0351562 C 1.722656 0.0351562 1.945312 -0.09375 2.101562 -0.285156 L 2.132812 -0.0742188 C 2.136719 -0.03125 2.160156 0 2.207031 0 L 2.714844 0 C 2.761719 0 2.789062 -0.03125 2.789062 -0.0742188 L 2.789062 -2.371094 C 2.789062 -2.414062 2.761719 -2.445312 2.714844 -2.445312 Z M 1.492188 -0.648438 C 1.171875 -0.648438 0.9375 -0.882812 0.9375 -1.222656 C 0.9375 -1.574219 1.171875 -1.8125 1.492188 -1.8125 C 1.820312 -1.8125 2.042969 -1.550781 2.042969 -1.222656 C 2.042969 -0.886719 1.820312 -0.648438 1.492188 -0.648438 Z M 1.492188 -0.648438 "/></g></g></g><g fill="#2b7faf" fill-opacity="1"><g transform="translate(38.447245, 23.59885)"><g><path d="M 0.292969 -3.570312 L 0.292969 -0.0742188 C 0.292969 -0.03125 0.324219 0 0.371094 0 L 0.96875 0 C 1.011719 0 1.042969 -0.03125 1.042969 -0.0742188 L 1.042969 -3.570312 C 1.042969 -3.613281 1.011719 -3.644531 0.96875 -3.644531 L 0.371094 -3.644531 C 0.324219 -3.644531 0.292969 -3.613281 0.292969 -3.570312 Z M 0.292969 -3.570312 "/></g></g></g><g fill="#2b7faf" fill-opacity="1"><g transform="translate(39.685003, 23.59885)"><g><path d="M 1.492188 -0.660156 C 1.167969 -0.660156 0.9375 -0.914062 0.9375 -1.238281 C 0.9375 -1.550781 1.167969 -1.800781 1.492188 -1.800781 C 1.664062 -1.800781 1.800781 -1.738281 1.941406 -1.613281 C 1.980469 -1.578125 2.015625 -1.574219 2.050781 -1.605469 L 2.410156 -1.957031 C 2.441406 -1.988281 2.445312 -2.027344 2.414062 -2.0625 C 2.1875 -2.324219 1.851562 -2.496094 1.472656 -2.496094 C 0.769531 -2.496094 0.21875 -1.9375 0.21875 -1.238281 C 0.21875 -0.527344 0.769531 0.0351562 1.472656 0.0351562 C 1.863281 0.0351562 2.203125 -0.136719 2.429688 -0.398438 C 2.460938 -0.433594 2.457031 -0.472656 2.425781 -0.503906 L 2.066406 -0.847656 C 2.03125 -0.882812 1.996094 -0.882812 1.957031 -0.847656 C 1.816406 -0.730469 1.671875 -0.660156 1.492188 -0.660156 Z M 1.492188 -0.660156 "/></g></g></g><g fill="#2b7faf" fill-opacity="1"><g transform="translate(42.230415, 23.59885)"><g><path d="M 2.585938 -2.445312 L 1.988281 -2.445312 C 1.941406 -2.445312 1.910156 -2.414062 1.910156 -2.371094 L 1.910156 -1.066406 C 1.910156 -0.882812 1.765625 -0.632812 1.449219 -0.632812 C 1.257812 -0.632812 1.019531 -0.742188 1.019531 -1.136719 L 1.019531 -2.371094 C 1.019531 -2.414062 0.988281 -2.445312 0.945312 -2.445312 L 0.34375 -2.445312 C 0.300781 -2.445312 0.269531 -2.414062 0.269531 -2.371094 L 0.269531 -0.988281 C 0.269531 -0.335938 0.660156 0.0664062 1.203125 0.0664062 C 1.496094 0.0664062 1.746094 -0.105469 1.910156 -0.339844 L 1.933594 -0.0742188 C 1.9375 -0.03125 1.960938 0 2.007812 0 L 2.585938 0 C 2.628906 0 2.660156 -0.03125 2.660156 -0.0742188 L 2.660156 -2.371094 C 2.660156 -2.414062 2.628906 -2.445312 2.585938 -2.445312 Z M 2.585938 -2.445312 "/></g></g></g><g fill="#2b7faf" fill-opacity="1"><g transform="translate(45.085271, 23.59885)"><g><path d="M 0.292969 -3.570312 L 0.292969 -0.0742188 C 0.292969 -0.03125 0.324219 0 0.371094 0 L 0.96875 0 C 1.011719 0 1.042969 -0.03125 1.042969 -0.0742188 L 1.042969 -3.570312 C 1.042969 -3.613281 1.011719 -3.644531 0.96875 -3.644531 L 0.371094 -3.644531 C 0.324219 -3.644531 0.292969 -3.613281 0.292969 -3.570312 Z M 0.292969 -3.570312 "/></g></g></g><g fill="#2b7faf" fill-opacity="1"><g transform="translate(46.32303, 23.59885)"><g><path d="M 2.714844 -2.445312 L 2.207031 -2.445312 C 2.160156 -2.445312 2.136719 -2.414062 2.132812 -2.371094 L 2.105469 -2.144531 C 1.941406 -2.355469 1.710938 -2.496094 1.402344 -2.496094 C 0.71875 -2.496094 0.21875 -1.933594 0.21875 -1.21875 C 0.21875 -0.519531 0.71875 0.0351562 1.402344 0.0351562 C 1.722656 0.0351562 1.945312 -0.09375 2.101562 -0.285156 L 2.132812 -0.0742188 C 2.136719 -0.03125 2.160156 0 2.207031 0 L 2.714844 0 C 2.761719 0 2.789062 -0.03125 2.789062 -0.0742188 L 2.789062 -2.371094 C 2.789062 -2.414062 2.761719 -2.445312 2.714844 -2.445312 Z M 1.492188 -0.648438 C 1.171875 -0.648438 0.9375 -0.882812 0.9375 -1.222656 C 0.9375 -1.574219 1.171875 -1.8125 1.492188 -1.8125 C 1.820312 -1.8125 2.042969 -1.550781 2.042969 -1.222656 C 2.042969 -0.886719 1.820312 -0.648438 1.492188 -0.648438 Z M 1.492188 -0.648438 "/></g></g></g><g fill="#2b7faf" fill-opacity="1"><g transform="translate(49.307652, 23.59885)"><g><path d="M 1.792969 -2.445312 L 1.394531 -2.445312 L 1.394531 -3.121094 C 1.394531 -3.164062 1.363281 -3.195312 1.316406 -3.195312 L 0.71875 -3.195312 C 0.675781 -3.195312 0.644531 -3.164062 0.644531 -3.121094 L 0.644531 -2.445312 L 0.246094 -2.445312 C 0.199219 -2.445312 0.167969 -2.414062 0.167969 -2.371094 L 0.167969 -1.917969 C 0.167969 -1.871094 0.199219 -1.84375 0.246094 -1.84375 L 0.644531 -1.84375 L 0.644531 -0.0742188 C 0.644531 -0.03125 0.675781 0 0.71875 0 L 1.316406 0 C 1.363281 0 1.394531 -0.03125 1.394531 -0.0742188 L 1.394531 -1.84375 L 1.792969 -1.84375 C 1.835938 -1.84375 1.867188 -1.871094 1.867188 -1.917969 L 1.867188 -2.371094 C 1.867188 -2.414062 1.835938 -2.445312 1.792969 -2.445312 Z M 1.792969 -2.445312 "/></g></g></g><g fill="#2b7faf" fill-opacity="1"><g transform="translate(51.244156, 23.59885)"><g><path d="M 1.492188 0.0507812 C 2.203125 0.0507812 2.769531 -0.515625 2.769531 -1.222656 C 2.769531 -1.9375 2.203125 -2.5 1.492188 -2.5 C 0.789062 -2.5 0.21875 -1.9375 0.21875 -1.222656 C 0.21875 -0.515625 0.789062 0.0507812 1.492188 0.0507812 Z M 1.492188 -0.644531 C 1.1875 -0.644531 0.9375 -0.886719 0.9375 -1.222656 C 0.9375 -1.5625 1.1875 -1.808594 1.492188 -1.808594 C 1.800781 -1.808594 2.046875 -1.5625 2.046875 -1.222656 C 2.046875 -0.886719 1.800781 -0.644531 1.492188 -0.644531 Z M 1.492188 -0.644531 "/></g></g></g><g fill="#2b7faf" fill-opacity="1"><g transform="translate(54.133949, 23.59885)"><g><path d="M 2.007812 -2.375 C 1.9375 -2.441406 1.8125 -2.5 1.667969 -2.5 C 1.367188 -2.5 1.164062 -2.324219 1.039062 -2.085938 L 1.019531 -2.371094 C 1.011719 -2.414062 0.988281 -2.445312 0.945312 -2.445312 L 0.371094 -2.445312 C 0.324219 -2.445312 0.292969 -2.414062 0.292969 -2.371094 L 0.292969 -0.0742188 C 0.292969 -0.03125 0.324219 0 0.371094 0 L 0.96875 0 C 1.011719 0 1.042969 -0.03125 1.042969 -0.0742188 L 1.042969 -1.292969 C 1.042969 -1.59375 1.226562 -1.820312 1.539062 -1.820312 C 1.632812 -1.820312 1.691406 -1.796875 1.742188 -1.78125 C 1.800781 -1.765625 1.847656 -1.777344 1.867188 -1.835938 L 2.03125 -2.265625 C 2.046875 -2.300781 2.046875 -2.339844 2.007812 -2.375 Z M 2.007812 -2.375 "/></g></g></g></svg>